<?xml version="1.0" encoding="UTF-8"?>
<svg version="1.1" xmlns="http://www.w3.org/2000/svg" width="500" height="500">
<path d="M0 0 C4.30107852 3.67661524 7.21850845 8.03938887 10.25 12.75 C12.8592707 17.09162206 12.8592707 17.09162206 16 21 C18.7128128 21.70440723 18.7128128 21.70440723 22 21 C24.88579972 18.84955722 27.25253213 16.26468821 29.6875 13.625 C31.00193247 12.24031118 32.31826374 10.85742173 33.63671875 9.4765625 C34.21123779 8.85861816 34.78575684 8.24067383 35.37768555 7.60400391 C37.77326472 5.23546287 39.5246417 4.07233713 42.875 3.5625 C46.11139566 4.01559539 47.66846792 4.6708356 49.84375 7.125 C52.45266854 11.35567871 53.60184799 16.26779321 55 21 C55.57594424 22.75244572 56.15837947 24.50278424 56.75 26.25 C57.1625 27.4875 57.575 28.725 58 30 C61.15838307 31.00545648 62.53176612 31.22205637 65.578125 29.77734375 C66.90070313 28.86662109 66.90070313 28.86662109 68.25 27.9375 C69.21035156 27.29554687 70.17070312 26.65359375 71.16015625 25.9921875 C72.9333806 24.74824745 74.6937529 23.48553156 76.43359375 22.1953125 C79.99690195 19.61392112 82.83496718 17.6099007 87.3125 17.3125 C91 18 91 18 93.09765625 19.94921875 C95.6238706 24.00049884 96.30473835 27.84234035 97.125 32.5 C98.26734436 40.01589906 98.26734436 40.01589906 101 47 C103.42620787 48.20794179 104.62035138 48.10257173 107.2265625 47.3984375 C108.01804687 47.06070313 108.80953125 46.72296875 109.625 46.375 C110.50027344 46.00761719 111.37554687 45.64023437 112.27734375 45.26171875 C114.98227403 44.00821447 117.57052253 42.6138526 120.1875 41.1875 C124.51742863 38.97835274 127.22320002 38.47142401 132 40 C134.17089844 41.16137695 134.17089844 41.16137695 136 43 C136.45410156 45.91088867 136.45410156 45.91088867 136.390625 49.41796875 C136.37128906 51.29838867 136.37128906 51.29838867 136.3515625 53.21679688 C136.30128906 55.18229492 136.30128906 55.18229492 136.25 57.1875 C136.22993307 58.5227601 136.21168262 59.85804883 136.1953125 61.19335938 C136.14809803 64.46296146 136.08225184 67.73112192 136 71 C136.66 71 137.32 71 138 71 C138 71.66 138 72.32 138 73 C140.45906037 72.52434234 142.91720993 72.04463948 145.375 71.5625 C146.07367188 71.42779297 146.77234375 71.29308594 147.4921875 71.15429688 C151.35628734 70.4227578 151.35628734 70.4227578 155 69 C157.12039826 68.82568154 159.24793308 68.73290929 161.375 68.6875 C162.51710938 68.65011719 163.65921875 68.61273438 164.8359375 68.57421875 C168 69 168 69 170.38671875 70.73046875 C173.15915281 74.6306726 172.57019336 78.39867215 172 83 C171.36891869 85.45589474 170.63287654 87.80960935 169.75390625 90.1875 C168.62580605 94.39595672 168.35288879 98.6664626 168 103 C168.85231201 102.99887207 169.70462402 102.99774414 170.58276367 102.99658203 C173.76106667 103.0065379 176.93765071 103.04318569 180.11547852 103.09765625 C181.48777528 103.11576598 182.86025367 103.12339381 184.23266602 103.12011719 C195.5841902 103.1036478 195.5841902 103.1036478 199.04150391 105.29248047 C201.2267443 107.79066886 202 109.55628841 202 112.875 C201.67 113.90625 201.34 114.9375 201 116 C200.80921875 116.60714844 200.6184375 117.21429688 200.421875 117.83984375 C198.82638811 122.52426746 196.59138859 126.62392461 193.98828125 130.82421875 C192.76791658 133.51095046 192.44957649 135.0879303 193 138 C197.58337176 142.13347024 204.09184821 142.05196085 209.96289062 142.72851562 C215.20819944 143.4292723 218.89100485 144.3940138 223 148 C224.36367232 151.10204741 223.90714254 153.78332159 223 157 C220.66633304 160.93981185 217.85777935 164.43041215 215 168 C211.10790616 173.00852643 211.10790616 173.00852643 210.1875 179 C210.5896875 179.99 210.5896875 179.99 211 181 C211.94875 181.2475 212.8975 181.495 213.875 181.75 C218.72920347 183.13551152 223.34052918 185.07348802 228 187 C228.70125 187.27070313 229.4025 187.54140625 230.125 187.8203125 C233.57548619 189.18612995 234.8781829 189.81727435 237 193 C237.70498826 196.28994521 237.4495079 198.24990931 235.71484375 201.14453125 C231.80622253 206.37086531 227.32759956 211.1910725 222 215 C221.34 215 220.68 215 220 215 C219.67 217.97 219.34 220.94 219 224 C219.66 224 220.32 224 221 224 C221 224.66 221 225.32 221 226 C221.99 226 222.98 226 224 226 C224 226.66 224 227.32 224 228 C224.804375 228.20625 225.60875 228.4125 226.4375 228.625 C231.85815336 230.717182 236.87835838 233.87835838 241 238 C241.99109292 241.20608582 242.00306067 243.79634704 241 247 C237.74424949 250.33892662 233.99877597 252.63568516 230 255 C229.12085938 255.53109375 228.24171875 256.0621875 227.3359375 256.609375 C221.4880618 260 221.4880618 260 219 260 C218.41015062 262.69134165 218.41015062 262.69134165 219 266 C221.02614453 268.74072229 223.48652623 270.95973046 226 273.25 C227.31650957 274.48009774 228.62922713 275.71427069 229.9375 276.953125 C230.52402344 277.49098633 231.11054688 278.02884766 231.71484375 278.58300781 C233 280 233 280 233 282 C233.66 282 234.32 282 235 282 C237.37358694 285.56038041 237.73959381 286.80896839 237 291 C233.21297094 296.04125412 228.28979874 297.83159394 222.3671875 299.34375 C219.36623595 300.17569697 216.76354719 301.58452461 214 303 C213.01 303 212.02 303 211 303 C210.09737487 306.48301108 209.70272048 308.34940425 211.22265625 311.67578125 C211.82980469 312.54589844 212.43695313 313.41601562 213.0625 314.3125 C213.70445312 315.26382812 214.34640625 316.21515625 215.0078125 317.1953125 C216.2560265 318.95260201 217.51942402 320.69931113 218.8046875 322.4296875 C221.40465428 326.02485688 223.39145254 328.86027624 223.6875 333.375 C223 337 223 337 221.046875 338.6328125 C216.95390508 340.46940157 212.98912613 340.94794963 208.5625 341.5 C202.78225823 342.22420663 198.12601532 342.99940566 193 346 C192.31484878 351.34417951 194.06867135 354.26897194 196.6875 358.703125 C199.88755134 364.30321485 201.75460733 369.46006982 201 376 C199.60292947 378.38019423 198.78585344 379.74565739 196.1171875 380.609375 C195.37726563 380.65578125 194.63734375 380.7021875 193.875 380.75 C193.00488281 380.80929687 192.13476562 380.86859375 191.23828125 380.9296875 C188.70714217 380.98464589 186.198172 380.98591867 183.66796875 380.9453125 C182.9095166 380.93532227 182.15106445 380.92533203 181.36962891 380.91503906 C179.84680926 380.88861129 178.32417026 380.84660884 176.80224609 380.78808594 C173.90704099 380.72605054 171.55518885 380.73230106 168.91796875 382.00390625 C167.37394508 385.36133644 168.47260848 388.60096534 169.25 392.0625 C169.47236328 393.16174805 169.47236328 393.16174805 169.69921875 394.28320312 C170.50948797 398.25283589 170.50948797 398.25283589 172 402 C172.14640501 403.64142541 172.22096589 405.2898141 172.25 406.9375 C172.27578125 407.81277344 172.3015625 408.68804687 172.328125 409.58984375 C172 412 172 412 170.921875 413.79296875 C165.81696471 416.99910143 156.46949017 415.55381949 150.8125 414.28515625 C149.04866202 413.75355508 147.2954899 413.18346992 145.5625 412.55859375 C142.1825192 411.82179915 139.3736793 412.37570395 136 413 C136.02094727 413.82725586 136.04189453 414.65451172 136.06347656 415.50683594 C136.14661619 419.2544337 136.19865531 423.00183749 136.25 426.75 C136.28351563 428.05195313 136.31703125 429.35390625 136.3515625 430.6953125 C136.36445313 431.94570313 136.37734375 433.19609375 136.390625 434.484375 C136.41157227 435.63647461 136.43251953 436.78857422 136.45410156 437.97558594 C135.90481583 441.63394702 134.89741524 442.77775612 132 445 C129.78125 445.4609375 129.78125 445.4609375 127.5 445.375 C126.37078125 445.35566406 126.37078125 445.35566406 125.21875 445.3359375 C122.80849966 444.97100523 121.10890602 444.19824206 119 443 C119 442.34 119 441.68 119 441 C118.34 440.896875 117.68 440.79375 117 440.6875 C114.47626378 440.10914378 112.48384555 439.38003342 110.125 438.375 C105.99425326 436.74940195 103.28657676 437.01765949 99 438 C98.86335938 438.97582031 98.72671875 439.95164062 98.5859375 440.95703125 C97.97603889 445.20813154 97.32439568 449.45020382 96.625 453.6875 C96.5115625 454.43322266 96.398125 455.17894531 96.28125 455.94726562 C95.60366583 459.98754147 95.02450228 463.1149772 92 466 C87.31895309 467.21360476 84.31335876 467.2220333 80 465 C80 464.34 80 463.68 80 463 C79.278125 462.731875 78.55625 462.46375 77.8125 462.1875 C75.00233617 461.00098638 72.51583443 459.72514361 70 458 C70 457.34 70 456.68 70 456 C67.34771188 454.92474806 64.71631546 453.90543849 62 453 C57.48204243 456.66320884 56.27579812 459.73060087 54.81640625 465.29296875 C53.23466442 470.53769166 50.90470654 476.09529346 47 480 C45.125 480.23046875 45.125 480.23046875 43 480.1875 C42.29875 480.18105469 41.5975 480.17460937 40.875 480.16796875 C39 480 39 480 37 479 C37 478.34 37 477.68 37 477 C36.34 477 35.68 477 35 477 C35 476.34 35 475.68 35 475 C34.34 475 33.68 475 33 475 C33 474.34 33 473.68 33 473 C32.34 473 31.68 473 31 473 C31 472.34 31 471.68 31 471 C30.360625 470.731875 29.72125 470.46375 29.0625 470.1875 C27 469 27 469 26 466 C25.34 466 24.68 466 24 466 C23.38125 465.319375 22.7625 464.63875 22.125 463.9375 C21.42375 463.298125 20.7225 462.65875 20 462 C17.9906645 461.99822835 17.9906645 461.99822835 16 463 C14.26537418 464.92023425 14.26537418 464.92023425 12.75 467.375 C12.14414062 468.26703125 11.53828125 469.1590625 10.9140625 470.078125 C9.60923731 472.0699806 8.33419639 474.08159117 7.0859375 476.109375 C2.30003059 483.46937527 2.30003059 483.46937527 -1.296875 484.9375 C-4.64294023 485.20698176 -6.90419859 484.78050006 -9.65625 482.8203125 C-13.74666226 478.44705258 -16.460582 472.90389997 -19.2890625 467.671875 C-20.98449775 465.02420899 -22.29061911 463.56226398 -25 462 C-29.71093023 462.74383109 -31.90351712 465.96496936 -34.66796875 469.5390625 C-35.32732422 470.26222656 -35.32732422 470.26222656 -36 471 C-36.66 471 -37.32 471 -38 471 C-38.20625 471.556875 -38.4125 472.11375 -38.625 472.6875 C-40.53255716 475.89566432 -42.69831212 478.2764774 -46 480 C-49.05085571 480.40313102 -51.94349754 480.30565025 -55 480 C-58.31868512 474.56942435 -60.61375376 469.42489628 -62.328125 463.30078125 C-63.51818351 459.22552274 -64.55567757 455.96897581 -68.16015625 453.55078125 C-71.21580151 452.64292344 -71.21580151 452.64292344 -74.41015625 454.88671875 C-75.6414915 455.8019183 -76.8586579 456.73642644 -78.0625 457.6875 C-78.67416016 458.14833984 -79.28582031 458.60917969 -79.91601562 459.08398438 C-82.37096564 460.93913039 -84.77926362 462.81027279 -87.11328125 464.81640625 C-89.57213218 466.35891522 -91.24606121 466.33593847 -94.125 466.25 C-94.99382812 466.23453125 -95.86265625 466.2190625 -96.7578125 466.203125 C-99 466 -99 466 -101 465 C-103.37877306 460.45048346 -103.84051127 455.45322063 -104.5625 450.4375 C-104.81220626 448.74846122 -105.06345398 447.05964945 -105.31640625 445.37109375 C-105.42412354 444.62786865 -105.53184082 443.88464355 -105.64282227 443.11889648 C-105.99270505 441.04327604 -106.46137641 439.03400142 -107 437 C-113.92820913 436.42264924 -118.09378036 438.705871 -123.96875 442.15625 C-128.92322715 444.9087373 -133.32794848 446.12771103 -139 445 C-142.03215675 442.80168636 -142.81654398 441.55036806 -144 438 C-144.08266486 436.08093083 -144.10740663 434.15910526 -144.09765625 432.23828125 C-144.09282227 430.56088867 -144.09282227 430.56088867 -144.08789062 428.84960938 C-144.07532227 427.09874023 -144.07532227 427.09874023 -144.0625 425.3125 C-144.05798828 424.13365234 -144.05347656 422.95480469 -144.04882812 421.74023438 C-144.03703273 418.82677211 -144.0205727 415.91341137 -144 413 C-148.42621867 412.16405093 -151.13421779 412.06411206 -155.4375 413.4375 C-162.70515921 415.44867613 -169.51370176 415.27613395 -177 415 C-180.46553921 409.62841423 -178.75182672 403.02840871 -178 397 C-177.48046875 394.7734375 -177.48046875 394.7734375 -176.9375 393.0625 C-175.86017789 389.54324776 -175.71290005 386.66052434 -176 383 C-177.78280877 380.78691465 -177.78280877 380.78691465 -180.13549805 380.82055664 C-181.00215088 380.85012451 -181.86880371 380.87969238 -182.76171875 380.91015625 C-183.71626953 380.93013672 -184.67082031 380.95011719 -185.65429688 380.97070312 C-187.65704207 381.03131422 -189.65965937 381.09633089 -191.66210938 381.16601562 C-197.6233859 381.28196265 -201.73514991 380.87370067 -207 378 C-208.52529219 376.47470781 -208.24275492 375.10057543 -208.3125 372.9765625 C-208.25379149 367.67811978 -206.48772315 363.96384067 -204 359.375 C-201.09289722 353.95364616 -199.47822936 350.21233172 -200 344 C-200.79921875 343.87882812 -201.5984375 343.75765625 -202.421875 343.6328125 C-204.72498431 343.28139911 -207.0270124 342.92285284 -209.328125 342.55859375 C-211.66675529 342.2028234 -214.01062379 341.87896017 -216.359375 341.59765625 C-221.11202569 340.97697426 -224.26060753 340.5118871 -228.25 337.75 C-230.47661041 334.25104078 -230.84844793 333.08797638 -230 329 C-227.28091365 323.5618273 -223.93197222 318.63411012 -220 314 C-217.68638198 310.52957297 -217.48979272 309.08165827 -218 305 C-221.2043286 301.84361647 -225.10867828 300.91087274 -229.3125 299.6875 C-235.40170748 297.77274258 -239.84269802 295.96848286 -244 291 C-244.875 288.125 -244.875 288.125 -244 285 C-241.24069807 280.92845676 -237.65626585 277.60500392 -234.0859375 274.25390625 C-233.58682861 273.77719482 -233.08771973 273.3004834 -232.57348633 272.80932617 C-231.11744 271.42715261 -229.63916077 270.06851634 -228.16015625 268.7109375 C-225.70651302 266.13836277 -225.70651302 266.13836277 -225.68359375 262.6640625 C-225.78800781 261.78492188 -225.89242187 260.90578125 -226 260 C-226.66773438 259.76023437 -227.33546875 259.52046875 -228.0234375 259.2734375 C-231.751705 257.67840442 -235.14853844 255.70272898 -238.625 253.625 C-239.29273438 253.23828125 -239.96046875 252.8515625 -240.6484375 252.453125 C-244.13778055 250.37347654 -246.94049503 248.62472874 -249 245 C-249.5625 242.125 -249.5625 242.125 -249 239 C-244.04028433 232.56577427 -236.01157791 227.59855428 -228 226 C-228 225.34 -228 224.68 -228 224 C-227.34 224 -226.68 224 -226 224 C-226 220.23737371 -226.18511966 218.02215664 -228.56640625 215.03515625 C-230.66284968 212.9633286 -232.80577501 210.96801623 -235 209 C-242.67946994 202.112228 -242.67946994 202.112228 -244.10546875 197.1640625 C-244 194 -244 194 -242.3125 191.375 C-237.97231959 187.6876601 -232.23359039 186.03528515 -227 184 C-225.24492883 183.24078382 -223.49423095 182.47129998 -221.75 181.6875 C-221.02296875 181.36136719 -220.2959375 181.03523437 -219.546875 180.69921875 C-219.03640625 180.46847656 -218.5259375 180.23773438 -218 180 C-217.44818108 174.60353553 -219.08403436 171.7179071 -222.25 167.5625 C-223.0771085 166.41911557 -223.90264869 165.27459489 -224.7265625 164.12890625 C-225.85191406 162.58009766 -225.85191406 162.58009766 -227 161 C-231 155.16410256 -231 155.16410256 -231 151.3125 C-229.75208861 148.42670492 -228.40898466 147.02840557 -226 145 C-223.08203125 144.0234375 -223.08203125 144.0234375 -219.8125 143.375 C-218.66523438 143.13652344 -217.51796875 142.89804688 -216.3359375 142.65234375 C-215.23507813 142.43707031 -214.13421875 142.22179687 -213 142 C-211.31121293 141.65202226 -209.62349062 141.2987837 -207.9375 140.9375 C-207.26589844 140.80214844 -206.59429687 140.66679687 -205.90234375 140.52734375 C-203.76724512 139.93547863 -201.94826215 139.04572645 -200 138 C-200.28606749 133.51827604 -201.09790135 130.51589829 -203.375 126.625 C-206.54881231 121.19343199 -209.50421943 116.02531658 -208.4375 109.625 C-206.84804663 106.72251993 -205.8326615 105.66519429 -203 104 C-200.06738281 103.65942383 -200.06738281 103.65942383 -196.703125 103.70703125 C-195.49785156 103.71669922 -194.29257813 103.72636719 -193.05078125 103.73632812 C-191.79652344 103.76146484 -190.54226562 103.78660156 -189.25 103.8125 C-187.98027344 103.82603516 -186.71054688 103.83957031 -185.40234375 103.85351562 C-182.26780156 103.8888676 -179.13411455 103.93821752 -176 104 C-175.85921387 98.0107233 -176.23449584 92.6554809 -177.5 86.8125 C-180.01000336 75.02000672 -180.01000336 75.02000672 -178 71 C-177.34 71 -176.68 71 -176 71 C-176 70.34 -176 69.68 -176 69 C-168.92480658 68.67176938 -163.10327978 69.01874215 -156.40234375 71.33203125 C-152.54501885 72.40455573 -148.98014072 72.19258745 -145 72 C-143.76491845 69.5298369 -143.93043798 67.99430012 -144.0078125 65.23828125 C-144.02457031 64.28373047 -144.04132813 63.32917969 -144.05859375 62.34570312 C-144.1024413 60.34290171 -144.15436513 58.34025884 -144.21484375 56.33789062 C-144.3022362 50.41506611 -143.98181731 46.18004077 -141 41 C-137.49337515 38.6622501 -136.12370255 38.6701038 -132 39 C-129.125 40 -129.125 40 -127 41 C-127 41.66 -127 42.32 -127 43 C-126.319375 43.103125 -125.63875 43.20625 -124.9375 43.3125 C-122 44 -122 44 -118.625 45.5625 C-114.73750253 47.10409382 -112.14003404 47.48706283 -108 47 C-105.82265694 43.73398541 -105.69828585 41.57338235 -105.33984375 37.75 C-104.93749111 34.49418096 -104.31579246 31.33199506 -103.625 28.125 C-103.39039063 27.03445312 -103.15578125 25.94390625 -102.9140625 24.8203125 C-101.99317131 21.97893027 -101.32542979 20.80071743 -99 19 C-95.92805092 17.46402546 -93.39755707 17.7734962 -90 18 C-86.5625 19.5 -86.5625 19.5 -84 21 C-84 21.66 -84 22.32 -84 23 C-83.01 23.309375 -83.01 23.309375 -82 23.625 C-78.49603776 25.23098269 -75.89562265 27.37736461 -72.96484375 29.85546875 C-71.08250178 31.17485451 -71.08250178 31.17485451 -68.94140625 30.98828125 C-65.17851934 29.07276739 -64.1800322 25.50600413 -62.82421875 21.6953125 C-62.44910156 20.51710938 -62.07398438 19.33890625 -61.6875 18.125 C-57.73359382 6.85518357 -57.73359382 6.85518357 -53 4 C-49.28191857 3.46092857 -47.60327625 3.58880243 -44.47265625 5.72265625 C-43.67730469 6.49480469 -42.88195312 7.26695313 -42.0625 8.0625 C-41.20140625 8.87847656 -40.3403125 9.69445313 -39.453125 10.53515625 C-37.95770402 12.03772097 -36.48285277 13.56162189 -35.046875 15.12109375 C-32.01705624 18.40339741 -30.66006267 19.83768951 -26.1875 20.9375 C-24.45854017 20.97140117 -22.72929216 21 -21 21 C-20.74992188 20.31164062 -20.49984375 19.62328125 -20.2421875 18.9140625 C-18.80112316 15.53345245 -17.03681375 12.51326031 -15.125 9.375 C-14.10792969 7.68503906 -14.10792969 7.68503906 -13.0703125 5.9609375 C-9.3526181 0.64393306 -6.57273739 -0.92248946 0 0 Z M-15 48 C-17.26826516 50.89913593 -17.26826516 50.89913593 -17.375 54.5625 C-17.58125 55.696875 -17.7875 56.83125 -18 58 C-20.82629456 59.89760372 -23.56709458 60.38303486 -26.90234375 60.82421875 C-28.34577148 61.03075073 -28.34577148 61.03075073 -29.81835938 61.24145508 C-30.84767578 61.3886499 -31.87699219 61.53584473 -32.9375 61.6875 C-58.4296374 65.65187394 -82.07943446 76.11157884 -103.8125 89.8125 C-104.43012207 90.19776855 -105.04774414 90.58303711 -105.68408203 90.97998047 C-107.16010798 91.93099119 -108.58594844 92.95907149 -110 94 C-110 94.66 -110 95.32 -110 96 C-110.7425 96.268125 -111.485 96.53625 -112.25 96.8125 C-114.89061949 97.95276751 -116.85552844 99.09380306 -119 101 C-119 101.66 -119 102.32 -119 103 C-121 104 -123 105 -125 106 C-125 106.66 -125 107.32 -125 108 C-125.556875 108.226875 -126.11375 108.45375 -126.6875 108.6875 C-129.66159588 110.37550036 -131.72008865 112.46676517 -134 115 C-134 115.66 -134 116.32 -134 117 C-134.99 117.33 -135.98 117.66 -137 118 C-137 118.66 -137 119.32 -137 120 C-137.66 120 -138.32 120 -139 120 C-141.39820305 122.63684747 -141.39820305 122.63684747 -142 126 C-142.66 126 -143.32 126 -144 126 C-145.3606009 127.48636758 -145.3606009 127.48636758 -146.625 129.375 C-147.07101563 130.00148438 -147.51703125 130.62796875 -147.9765625 131.2734375 C-149.16996969 132.95222643 -149.16996969 132.95222643 -149 135 C-149.66 135 -150.32 135 -151 135 C-154.19560041 139.06573561 -154.19560041 139.06573561 -155 144 C-155.66 144 -156.32 144 -157 144 C-157.84114171 145.43294498 -158.67265687 146.87154405 -159.5 148.3125 C-159.9640625 149.11300781 -160.428125 149.91351563 -160.90625 150.73828125 C-162.21767886 153.0314118 -162.21767886 153.0314118 -162 156 C-162.66 156 -163.32 156 -164 156 C-170.9473191 171.55340821 -177.34849585 187.29441588 -181 204 C-181.25124634 205.09272217 -181.25124634 205.09272217 -181.50756836 206.20751953 C-183.64878041 216.97090675 -183.43888428 227.88379415 -183.4375 238.8125 C-183.43889984 239.86357941 -183.44029968 240.91465881 -183.44174194 241.99758911 C-183.42492902 257.30861046 -182.67630125 271.32305728 -178 286 C-177.58340045 287.48163695 -177.17183807 288.96470059 -176.765625 290.44921875 C-174.34587408 299.02511515 -170.9566766 307.01876264 -167 315 C-166.4534375 316.15371094 -165.906875 317.30742187 -165.34375 318.49609375 C-159.60659401 330.40069243 -152.31256349 340.82180849 -144.19921875 351.1875 C-142.8706775 352.88652256 -141.57158943 354.6100085 -140.33203125 356.375 C-139.89246094 356.91125 -139.45289063 357.4475 -139 358 C-138.34 358 -137.68 358 -137 358 C-136 360 -135 362 -134 364 C-133.34 364 -132.68 364 -132 364 C-132 364.66 -132 365.32 -132 366 C-130.32040162 367.77671697 -130.32040162 367.77671697 -128.1875 369.5625 C-127.47980469 370.18253906 -126.77210937 370.80257813 -126.04296875 371.44140625 C-123.98726532 373.18424754 -123.98726532 373.18424754 -121 374 C-121 376.31 -121 378.62 -121 381 C-121.66 381 -122.32 381 -123 381 C-125.42130331 384.63195496 -125.21022785 386.38349348 -125.125 390.6875 C-125.10695312 391.86699219 -125.08890625 393.04648437 -125.0703125 394.26171875 C-125.04710937 395.16535156 -125.02390625 396.06898438 -125 397 C-124.34 397 -123.68 397 -123 397 C-122.731875 397.61875 -122.46375 398.2375 -122.1875 398.875 C-121.04443152 401.2995233 -121.04443152 401.2995233 -118 403 C-113.02701308 403.73610478 -109.06144189 403.54037042 -104.5625 401.25 C-101.97659601 399.17552994 -101.97659601 399.17552994 -100.5 396.75 C-99 395 -99 395 -96.328125 394.66796875 C-92.33948459 395.06589649 -89.62129868 396.55795635 -86.25 398.5625 C-75.07518581 404.8312982 -63.24490621 409.24074617 -50.9375 412.75 C-50.29127686 412.93651123 -49.64505371 413.12302246 -48.97924805 413.31518555 C-46.66387076 413.94068257 -44.34151292 414.4798748 -42 415 C-40.25577759 415.39167358 -40.25577759 415.39167358 -38.47631836 415.79125977 C-27.23887715 418.1328986 -16.18940918 418.49480021 -4.7355957 418.44604492 C-1.70129313 418.43753867 1.33111619 418.46641338 4.36523438 418.49804688 C17.35892173 418.54396539 29.3898272 417.10294827 42 414 C43.07990456 413.73892708 43.07990456 413.73892708 44.18162537 413.47257996 C63.65000289 408.73795707 81.44638073 401.29359071 98 390 C98.82757813 389.43539063 99.65515625 388.87078125 100.5078125 388.2890625 C103.02130925 386.54773717 105.51181582 384.77727441 108 383 C109.01320313 382.29101562 110.02640625 381.58203125 111.0703125 380.8515625 C112.07835937 380.13742187 113.08640625 379.42328125 114.125 378.6875 C115.05570312 378.03136719 115.98640625 377.37523437 116.9453125 376.69921875 C117.62335938 376.13847656 118.30140625 375.57773437 119 375 C119 374.34 119 373.68 119 373 C119.81210937 372.67515625 119.81210937 372.67515625 120.640625 372.34375 C123.81645344 370.53500003 126.20728081 368.08276201 128.75 365.5 C129.25660156 365.00113281 129.76320313 364.50226563 130.28515625 363.98828125 C133.12805599 361.46938363 133.12805599 361.46938363 134 358 C134.66 358 135.32 358 136 358 C165.93782064 326.78663312 180.96454569 281.87330868 180.5625 239.3125 C180.55890472 238.36042664 180.55530945 237.40835327 180.55160522 236.4274292 C180.46766229 220.84142742 179.28729336 206.067904 175 191 C174.80776855 190.31035156 174.61553711 189.62070313 174.41748047 188.91015625 C173.22356073 184.8045234 171.70102573 180.91937372 170 177 C169.49629883 175.83645996 169.49629883 175.83645996 168.98242188 174.64941406 C164.91683678 165.31270951 160.72587726 156.02428823 156 147 C155.34 147 154.68 147 154 147 C153.87431641 146.20335937 153.87431641 146.20335937 153.74609375 145.390625 C152.7212147 142.10671935 150.96988875 139.60590938 149.0625 136.75 C147.99708984 135.13351563 147.99708984 135.13351563 146.91015625 133.484375 C146.27980469 132.66453125 145.64945312 131.8446875 145 131 C144.34 131 143.68 131 143 131 C142.773125 130.484375 142.54625 129.96875 142.3125 129.4375 C140.51782382 126.10452995 138.50034985 122.85296329 136 120 C135.34 120 134.68 120 134 120 C133.79375 119.46375 133.5875 118.9275 133.375 118.375 C131.46749574 115.08021991 128.95180616 112.40636372 126 110 C125.34 110 124.68 110 124 110 C124 109.34 124 108.68 124 108 C123.34 108 122.68 108 122 108 C121.67 107.01 121.34 106.02 121 105 C119.15918686 103.37662919 117.33655261 101.90108924 115.375 100.4375 C114.80539551 100.00566406 114.23579102 99.57382813 113.64892578 99.12890625 C106.96558472 94.12498738 99.99224646 89.55635108 93 85 C92.01 84.34 91.02 83.68 90 83 C89.01 83 88.02 83 87 83 C87 82.34 87 81.68 87 81 C64.867679 70.6704335 43.66885607 63.27580584 19.42260742 59.95043945 C18.61412354 59.83917725 17.80563965 59.72791504 16.97265625 59.61328125 C16.25343994 59.51829346 15.53422363 59.42330566 14.79321289 59.32543945 C13 59 13 59 11 58 C10.15307099 55.77403998 9.53153701 53.51636413 8.87890625 51.2265625 C7.43367158 47.56530133 5.23938999 46.15959333 2 44 C-4.64671913 43.10264075 -9.83473134 43.36450248 -15 48 Z " fill="#FFFFFF" transform="translate(254,7)"/>
<path d="M0 0 C19.91588936 -0.04528318 39.83173654 -0.08206817 59.74766445 -0.10362434 C68.99659008 -0.11390275 78.24548126 -0.12789675 87.49438477 -0.15087891 C95.56305261 -0.17091866 103.63169549 -0.18374135 111.70038754 -0.18817699 C115.96603017 -0.19076659 120.23160142 -0.19678014 124.49722099 -0.21146011 C128.52648867 -0.22521205 132.55565676 -0.22918779 136.58494568 -0.22621536 C138.05007535 -0.22675777 139.51520897 -0.23062894 140.98031807 -0.23841095 C163.19191005 -0.35042692 187.07185405 2.48102708 207 13 C207 13.66 207 14.32 207 15 C207.56203125 15.09410156 208.1240625 15.18820313 208.703125 15.28515625 C217.05433447 17.88425716 224.57320393 26.76735461 229 34 C237.13529267 50.99265274 238.83683869 70.59294567 233.265625 88.66015625 C230.17871152 96.80617793 226.09711307 103.76431617 220 110 C219.34 110 218.68 110 218 110 C218 110.66 218 111.32 218 112 C200.35146122 128.07883702 172.61412594 132.37474485 149.828125 132.1953125 C148.4103821 132.19157142 146.99263657 132.18872964 145.57489014 132.18673706 C141.88586999 132.17918661 138.19701326 132.15961462 134.50805664 132.1373291 C130.05916724 132.11303794 125.61022247 132.10404869 121.1612854 132.09242249 C114.44074409 132.07318303 107.72055969 132.03480152 101 132 C101 141.9 101 151.8 101 162 C111.56 162 122.12 162 133 162 C133 177.84 133 193.68 133 210 C89.11 210 45.22 210 0 210 C0 194.16 0 178.32 0 162 C10.56 162 21.12 162 32 162 C32 124.38 32 86.76 32 48 C21.44 48 10.88 48 0 48 C0 32.16 0 16.32 0 0 Z M101 48 C101 59.55 101 71.1 101 83 C106.51528401 82.97178227 112.0263362 82.92837634 117.54052734 82.84741211 C119.41218497 82.82435896 121.28396998 82.80986646 123.15576172 82.80444336 C137.91131707 83.07814102 137.91131707 83.07814102 151 77 C154.55347589 73.27318383 156.14508589 70.73165834 156.1875 65.625 C156.20167969 64.85414063 156.21585938 64.08328125 156.23046875 63.2890625 C155.97801607 60.78165112 155.25193467 59.16738098 154 57 C153.34 57 152.68 57 152 57 C151.75894531 56.38511719 151.51789063 55.77023438 151.26953125 55.13671875 C149.70560115 52.5045041 148.4895801 51.96629769 145.6875 50.8125 C144.92824219 50.48894531 144.16898438 50.16539062 143.38671875 49.83203125 C138.22070978 48.03111487 133.2853137 47.86429739 127.85546875 47.90234375 C127.17246704 47.90335083 126.48946533 47.90435791 125.7857666 47.90539551 C123.2529938 47.91059743 120.72024508 47.92455855 118.1875 47.9375 C109.6796875 47.9684375 109.6796875 47.9684375 101 48 Z " fill="#FFFFFF" transform="translate(133,145)"/>
</svg>
